<svg xmlns="http://www.w3.org/2000/svg" viewBox="0 0 80 80" width="80" height="80">
  <rect x="10" y="32" width="60" height="8" rx="4" fill="none" stroke="#4A3F6B" stroke-width="2"/>
  <rect x="12" y="34" width="0" height="4" rx="2" fill="#88B0B5">
    <animate attributeName="width" values="0;56;0" dur="3s" repeatCount="indefinite" calcMode="spline" keySplines="0.4 0 0.2 1;0.4 0 0.2 1"/>
  </rect>
  <g>
    <animateTransform attributeName="transform" type="translate" values="0 0; 38 0; 38 0; 0 0; 0 0" dur="3s" repeatCount="indefinite" keyTimes="0;0.4;0.5;0.9;1"/>
    <circle cx="18" cy="28" r="10" fill="none" stroke="#88B0B5" stroke-width="1.5" opacity="0.8"/>
    <circle cx="18" cy="28" r="8" fill="#FFF8E7" stroke="#4A3F6B" stroke-width="1"/>
    <circle cx="15" cy="26" r="2" fill="white" stroke="#4A3F6B" stroke-width="0.6"/>
    <circle cx="15" cy="26" r="1" fill="#4A3F6B"/>
    <circle cx="21" cy="26" r="2" fill="white" stroke="#4A3F6B" stroke-width="0.6"/>
    <circle cx="21" cy="26" r="1" fill="#4A3F6B"/>
    <path d="M16 30 Q18 32 20 30" stroke="#4A3F6B" stroke-width="0.8" fill="none" stroke-linecap="round"/>
    <circle cx="13" cy="28" r="1.5" fill="#E8A598" opacity="0.5"/>
    <circle cx="23" cy="28" r="1.5" fill="#E8A598" opacity="0.5"/>
    <circle cx="12" cy="24" r="2" fill="#E8E4F0" opacity="0.3"/>
    <rect x="12" y="36" width="12" height="8" rx="3" fill="#FFF8E7" stroke="#4A3F6B" stroke-width="1"/>
    <rect x="14" y="38" width="8" height="4" rx="2" fill="#1A1425" opacity="0.9"/>
    <rect x="15" y="39" width="3" height="2" rx="1" fill="#6B5B95">
      <animate attributeName="fill" values="#6B5B95;#88B0B5;#6B5B95" dur="2s" repeatCount="indefinite"/>
    </rect>
  </g>
  <rect x="66" y="33" width="4" height="6" rx="2" fill="#4A3F6B" opacity="0.5"/>
</svg>